<svg class="icon icon-logo ">
                <use xmlns:xlink="http://www.w3.org/1999/xlink" xlink:href="#icon-logo">
                    <svg id="icon-logo" >
                            <svg class="logo-img" version="1.1" xmlns="http://www.w3.org/2000/svg" xmlns:xlink="http://www.w3.org/1999/xlink" x="0px" y="0px" viewBox="0 0 757.3 245.5" style="height: 150px; width: 150px;" xml:space="preserve">
                            <path d="M138.9,67.9c2.1,0,4.3-0.7,6.7-2.1c8.3-4.9,16-17.6,12.5-23.7c-2-3.5-5.2-6-9.1-6.9c-3.8-0.9-7.7-0.3-10.9,1.8
                            c-6.7,4.3-11.4,18.9-6.9,26.3C133.1,66.3,135.8,67.9,138.9,67.9z"></path>
                            <path d="M148.7,197.1c-1-1.2-2.1-1.1-2.8-0.6c-6.8,4.6-20.9,8-25.3,7.4c-0.4-0.1-0.8-0.6-0.9-1c-3.6-9.1,5.5-35.6,13.6-59
                            c4.1-11.9,8-23.2,9.7-30.8c1.8-8.1-0.5-18.3-5.3-23.8c-2.1-2.4-4.4-3.5-6.7-3.3c-5.9,0.5-12.8,7.5-16.6,13.7
                            c-8.1,13.1-14.8,41.1-18.7,78.9c-0.1,1-0.2,1.8-0.2,1.9c0,0.1-0.5,1.4-6.3,3.7c-13.2,5.3-44.9,11.8-55.6,5.1
                            c-3.6-2.1-0.4-11.6,4.9-27.2c7.7-22.9,20.5-61.2,26.5-117.5c1.5-12.6-1.4-21.3-7.8-23.9c-5.6-2.3-12.8,0.6-17.6,6.8
                            c-7.6,9.4-12.2,21.8-16.2,32.8l-1.1,2.9c-6.9,18.6-13,42.2-17.7,68.1c-7.4,41.2-3,68.6,12.7,79c16.2,10.7,43.2,3.9,80.7-21.2
                            c0.2,0.9,0.4,2.9,0.5,3.9c1.7,10,4.1,23.6,18.9,23.6c0.7,0,1.4,0,2.2-0.1c8.1-0.7,23.1-8.6,29.3-15.5c0.3-0.4,0.7-0.9,0.9-1.4
                            c0.3-0.9-0.3-1.6-0.9-2.3L148.7,197.1z"></path>
                            <path d="M343.2,96.1c-10.3-13.9-24-21.2-37.7-20.1c-17.5,1.4-34.2,16.5-48.3,43.6c-8,2.2-35.6,5.9-43.1,5.6c0-0.2,0.1-0.5,0.2-1.1
                            c0.2-0.7,18.8-68.5,29-90.7c0.3-0.8,1-1.3,1.5-1.2c0.5,0.1,0.9,0.7,1.1,1.8c0.5,3.4,5,4.9,9,5.2c4.6,0.3,9.6-0.8,10.5-3.6
                            c1.4-4.6,2-10.3,1.5-15.3c-0.4-4.2-1.6-9.7-5.2-12.5c-8.1-6.1-16-7.8-23.5-5.3c-25.7,8.9-40.9,66.2-49.9,100.4
                            c-2.9,10.8-5.1,19.4-6.7,22.2l-0.2,0.4c-0.1,0-0.2,0.1-0.4,0.2l-0.2,0.1c-0.2,0.1-0.4,0.2-0.7,0.5l0,0c-1.7,0.6-8.3,2.6-28.2,5
                            c-1,0.1-1.9,0.7-2.4,1.6c-1.9,3.6,1.1,12.2,2.1,14.1c3.7,7.3,14.2,8.4,21.8,9.3l1.4,0.2c-4.2,18.9-6.6,33.9-7,44.7
                            c-1.2,7.8-1.9,34.6,3,40.7c1.6,1.9,4.4,2.5,7,2.5c2.3,0,4.4-0.4,5.4-0.6c7-1.6,7.9-4.5,9.1-11.1c0.9-5,2.1-11.5,3.3-18.4
                            c2.8-16.1,6.3-36.1,9-47.3c0.2-1,0.4-2,0.7-3.1c0.8-4.2,1.8-9,4.6-11.6c2-1.8,5.5-2.5,8.6-3.1c1.1-0.2,2.1-0.4,3-0.6
                            c8.8-2.2,18-4.5,28.9-7.3c-10.3,27.1-6.9,55.7,8.1,67c14.6,11,38.3,5,66.7-17c0.8-0.5,0.9-1.6,0.2-2.8c-0.7-1.4-2.2-2.4-3.6-1.7
                            c-20.1,10.3-40.8,6.6-45.3,1.1c-3-3.6-3.1-16.2-1.2-25c0.9-4.2,2.2-7.2,3.6-8c15.8,1.2,44.2-1,59.2-28.1
                            C345.4,113.3,346,99.9,343.2,96.1z M311.7,121.4c-4.9,5.5-14.7,13.9-25.7,10.3c7.4-16.9,25.3-33.1,36.7-36.6c0.7,0,1,0.3,1.2,0.6
                            C325.4,98.8,320.9,111.2,311.7,121.4z"></path>
                            <path d="M503.8,79.3c-1.1,0.2-10.4,2.6-14.8,8.3c-10.5,13.7-19.7,34.7-27.8,53.3c-7.6,17.5-14.8,34.1-19.9,35.1
                            c-0.8,0.2-1.4,0-2.1-0.7l-0.1-0.1c-1.9-1.2-1.3-7.8-0.7-15.5c0.4-4.4,0.8-9.3,0.9-14.4c0.1-3-0.7-5.4-2.3-6.9
                            c-2.7-2.7-7.2-2.7-9.6-2.7c-15.6,0.1-29.9,19.4-41.4,34.9c-7.3,9.9-13.7,18.5-18,18.8c-0.9-2.5,7.9-19.5,12.7-28.8
                            c1.7-3.3,3.3-6.5,4.6-9c12.3-24.8,23.8-48.2,33.5-62.6c1.3-1.9,1.3-4.4,0-6.8c-2-3.8-7.7-8.2-17.2-8.3c-5.6-0.1-8.7,0.5-19.5,13.4
                            c-16,19.2-43.2,88.9-42.8,109.7c0.1,8.1,2.7,13.7,7.5,16.7c2.7,1.7,5.8,2.4,9.1,2.4c4.5,0,9.1-1.3,12.8-3
                            c16.7-7.7,31.3-29.3,41.9-45c5.6-8.3,10.5-15.5,13.5-17.2c0.3-0.2,0.6-0.2,0.9-0.1c0.4,0.2,0.6,0.6,0.6,1.1c0,0.2-0.2,1.4-0.5,2.9
                            c-1.8,9.5-7.3,38.6-4.2,46.7c2.3,6.1,7.2,10.1,13.7,11.4c8.3,1.6,18.1-1.5,24-7.6c8.9-9.4,14.2-23.1,18.9-35.3
                            c0.4-1.1,0.8-2.1,1.2-3.1c3.6-9.3,6.3-19.7,8.8-29.8c3.6-14.3,7.4-29.1,14-41.3c0.9-1.9,2.5-3.2,4.9-3.9c8.7-2.7,19-3.7,22.5-0.1
                            c1.4,1.5,1.6,3.8,0.5,6.9c-1.2,3.6-2.8,8.3-4.8,13.7c-7.1,20.1-17.9,50.4-19.4,70.3c-0.9,12.5,7.3,22.3,15.8,25.6
                            c5.2,2,9.9,1.3,12.4-2c2.1-2.7,1.6-4.8,0.9-8c-1-4.4-2.4-11.1,1.1-25.1c5.3-21.3,8.5-32.5,17.1-50.4c8.5-17.9,9.6-30.9,3.3-38.8
                            C545.8,71.5,518.9,75.7,503.8,79.3z"></path>
                            <path d="M664.9,110.1c3.2-5.3,5.3-12.1,2.9-15.3c-4.2-5.6-10-8.7-17.4-9.2c-16.8-1.2-37.6,11.4-47,20.7c-0.2,0.2-0.3,0.3-0.4,0.3
                            c0-0.1-0.1-0.3-0.1-0.6l0-0.1c-0.1-0.4,0.3-1.9,0.7-3.3c1.1-4.1,2.7-10.3,0.1-13.9c-1.8-2.5-7.9-8.1-14.6-8.3l-0.1,0l-0.1,0
                            c-0.1,0-0.2,0-0.3,0.1c-1.2,0.3-4.3,0.9-4.2,3.3c0.4,16.3-6.9,38.5-13.4,58.1c-7.6,23.1-14.2,43-9,52.1
                            c7.3,12.7,10.7,15.2,18.8,17.4l0.1,0c0.4,0,0.8,0.1,1.3,0.1c3.6,0,10.3-1.4,11.3-8c0.3-1.9,0.1-4.3-0.2-7.4
                            c-0.4-4.8-0.9-10.7,0.3-17.6c3.4-19.3,10-36.6,18.6-48.6c9.1-12.7,19.6-18.6,30.3-17.1c3,0.7,4.5,1.7,6,2.6c1.6,1,3.3,2.1,6.6,2.7
                            C658.4,118.6,662.3,114.3,664.9,110.1z"></path>
                            <path d="M556.1,60.8c0.1,0,0.2,0,0.3,0c4.6-0.2,8.1-2.4,10.3-6.5c3.6-6.8,2.4-16.7,0-20.5c-4-6.4-8.7-7.7-12.1-7.7
                            c-5.1,0-9.8,3.2-11.6,6.2c-3.3,5.5-2.9,12.7,1.1,19.4C547.1,57.2,552,60.8,556.1,60.8z"></path>
                            <path d="M691.9,160.3c0.7,0,1.3,0,1.9,0c37.1,0,51.8-19.7,57.3-31.6c5.1-11.1,5.4-22.6,2.4-26c-9-10.1-24.9-19.9-42.5-17
                            c-23.4,3.9-38,27.9-46.2,47.4c-13.5,32.1-14.6,56.7-3,69.4c5.7,6.2,14.2,9.4,25.2,9.4c8,0,17.3-1.7,27.7-5
                            c5.6-1.8,16.2-6.1,25.4-15.3c0.7-0.5,0.8-1.4,0.2-2.4c-0.8-1.4-2.4-2.4-3.8-1.6c-19.6,10.5-40.5,8.2-45.4,3.4
                            c-3.1-3.1-3.8-13.9-2.5-22.1C689.3,164.2,690.6,161.1,691.9,160.3z M734,103.4c1.7,3-2.6,16.5-11.8,28.2c-4.9,6.2-14.8,16.1-26,13.3
                            c4.7-16.6,24.6-39.5,36.7-42C733.6,102.9,733.9,103.1,734,103.4z"></path>
                            </svg>
                </svg>
                </use>
                </svg>